# xmcd
#
# Track frame offsets:
#       150
#       10702
#       25357
#       39504
#       56240
#       73509
#       86605
#       103444
#       133321
#       152090
#       168010
#       181141
#       206418
#
# Disc length: 2996 seconds
#
# Revision: 14
# Processed by: cddbd v1.4PL0 Copyright (c) Steve Scherf et al.
# Submitted via: WaveLab 4.01
#
DISCID=ad0bb20d
DTITLE=The Brian Setzer Orchestra - The Dirty Boogie
DYEAR=1900
DGENRE=Jazz
TTITLE0=This Cat's On A Hot Tin Roof
TTITLE1=The Dirty Boogie
TTITLE2=This Old House
TTITLE3=Let's Live It Up
TTITLE4=Sleepwalk
TTITLE5=Jump Jive an' Wail
TTITLE6=You're the Boss
TTITLE7=Rock This Town
TTITLE8=Since I Don't Have You
TTITLE9=Switchblade 327
TTITLE10=Nosey Joe
TTITLE11=Hollywood Nocturne
TTITLE12=As Long As I'm Singing
EXTD=
EXTT0=
EXTT1=
EXTT2=
EXTT3=
EXTT4=
EXTT5=
EXTT6=
EXTT7=
EXTT8=
EXTT9=
EXTT10=
EXTT11=
EXTT12=
PLAYORDER=
